<mxfile host="app.diagrams.net" modified="2020-10-14T07:41:20.116Z" agent="5.0 (Windows NT 10.0; WOW64) AppleWebKit/537.36 (KHTML, like Gecko) Chrome/61.0.3163.79 Safari/537.36 Maxthon/5.2.7.2000" etag="416L5c8nlZ_GQzvqnTNB" version="13.7.4" type="github">
  <diagram id="C5RBs43oDa-KdzZeNtuy" name="Page-1">
    <mxGraphModel dx="1389" dy="769" grid="1" gridSize="10" guides="1" tooltips="1" connect="1" arrows="1" fold="1" page="1" pageScale="1" pageWidth="827" pageHeight="1169" math="0" shadow="0">
      <root>
        <mxCell id="WIyWlLk6GJQsqaUBKTNV-0" />
        <mxCell id="WIyWlLk6GJQsqaUBKTNV-1" parent="WIyWlLk6GJQsqaUBKTNV-0" />
        <mxCell id="WIyWlLk6GJQsqaUBKTNV-3" value="Lamp doesn&#39;t work" style="rounded=1;whiteSpace=wrap;html=1;fontSize=12;glass=0;strokeWidth=1;shadow=0;" parent="WIyWlLk6GJQsqaUBKTNV-1" vertex="1">
          <mxGeometry x="130" y="120" width="450" height="490" as="geometry" />
        </mxCell>
        <mxCell id="m2YHZ7NnHzL9NQa0xSZE-0" value="" style="rounded=1;whiteSpace=wrap;html=1;fontSize=12;glass=0;strokeWidth=1;shadow=0;" vertex="1" parent="WIyWlLk6GJQsqaUBKTNV-1">
          <mxGeometry x="160" y="280" width="350" height="120" as="geometry" />
        </mxCell>
        <mxCell id="WIyWlLk6GJQsqaUBKTNV-7" value="Scheduler&amp;nbsp;" style="rounded=1;whiteSpace=wrap;html=1;fontSize=12;glass=0;strokeWidth=1;shadow=0;" parent="WIyWlLk6GJQsqaUBKTNV-1" vertex="1">
          <mxGeometry x="180" y="340" width="70" height="40" as="geometry" />
        </mxCell>
        <mxCell id="WIyWlLk6GJQsqaUBKTNV-8" value="No" style="rounded=0;html=1;jettySize=auto;orthogonalLoop=1;fontSize=11;endArrow=block;endFill=0;endSize=8;strokeWidth=1;shadow=0;labelBackgroundColor=none;edgeStyle=orthogonalEdgeStyle;" parent="WIyWlLk6GJQsqaUBKTNV-1" source="WIyWlLk6GJQsqaUBKTNV-10" target="WIyWlLk6GJQsqaUBKTNV-11" edge="1">
          <mxGeometry x="0.3333" y="20" relative="1" as="geometry">
            <mxPoint as="offset" />
          </mxGeometry>
        </mxCell>
        <mxCell id="WIyWlLk6GJQsqaUBKTNV-9" value="Yes" style="edgeStyle=orthogonalEdgeStyle;rounded=0;html=1;jettySize=auto;orthogonalLoop=1;fontSize=11;endArrow=block;endFill=0;endSize=8;strokeWidth=1;shadow=0;labelBackgroundColor=none;" parent="WIyWlLk6GJQsqaUBKTNV-1" source="WIyWlLk6GJQsqaUBKTNV-10" target="WIyWlLk6GJQsqaUBKTNV-12" edge="1">
          <mxGeometry y="10" relative="1" as="geometry">
            <mxPoint as="offset" />
          </mxGeometry>
        </mxCell>
        <mxCell id="WIyWlLk6GJQsqaUBKTNV-10" value="Bulb&lt;br&gt;burned out?" style="rhombus;whiteSpace=wrap;html=1;shadow=0;fontFamily=Helvetica;fontSize=12;align=center;strokeWidth=1;spacing=6;spacingTop=-4;" parent="WIyWlLk6GJQsqaUBKTNV-1" vertex="1">
          <mxGeometry x="170" y="630" width="100" height="80" as="geometry" />
        </mxCell>
        <mxCell id="WIyWlLk6GJQsqaUBKTNV-11" value="Repair Lamp" style="rounded=1;whiteSpace=wrap;html=1;fontSize=12;glass=0;strokeWidth=1;shadow=0;" parent="WIyWlLk6GJQsqaUBKTNV-1" vertex="1">
          <mxGeometry x="160" y="770" width="120" height="40" as="geometry" />
        </mxCell>
        <mxCell id="WIyWlLk6GJQsqaUBKTNV-12" value="Replace Bulb" style="rounded=1;whiteSpace=wrap;html=1;fontSize=12;glass=0;strokeWidth=1;shadow=0;" parent="WIyWlLk6GJQsqaUBKTNV-1" vertex="1">
          <mxGeometry x="320" y="650" width="120" height="40" as="geometry" />
        </mxCell>
        <mxCell id="m2YHZ7NnHzL9NQa0xSZE-1" value="&lt;span&gt;&lt;font style=&quot;font-size: 18px&quot;&gt;hypervisor&lt;/font&gt;&lt;/span&gt;" style="rounded=1;whiteSpace=wrap;html=1;fillColor=none;strokeColor=none;" vertex="1" parent="WIyWlLk6GJQsqaUBKTNV-1">
          <mxGeometry x="180" y="290" width="100" height="30" as="geometry" />
        </mxCell>
        <mxCell id="m2YHZ7NnHzL9NQa0xSZE-3" value="MMU" style="rounded=1;whiteSpace=wrap;html=1;fontSize=12;glass=0;strokeWidth=1;shadow=0;" vertex="1" parent="WIyWlLk6GJQsqaUBKTNV-1">
          <mxGeometry x="280" y="340" width="70" height="40" as="geometry" />
        </mxCell>
        <mxCell id="m2YHZ7NnHzL9NQa0xSZE-4" value="Time" style="rounded=1;whiteSpace=wrap;html=1;fontSize=12;glass=0;strokeWidth=1;shadow=0;" vertex="1" parent="WIyWlLk6GJQsqaUBKTNV-1">
          <mxGeometry x="378.5" y="340" width="70" height="40" as="geometry" />
        </mxCell>
        <mxCell id="m2YHZ7NnHzL9NQa0xSZE-5" value="" style="rounded=1;whiteSpace=wrap;html=1;fontSize=12;glass=0;strokeWidth=1;shadow=0;" vertex="1" parent="WIyWlLk6GJQsqaUBKTNV-1">
          <mxGeometry x="160" y="450" width="350" height="120" as="geometry" />
        </mxCell>
        <mxCell id="m2YHZ7NnHzL9NQa0xSZE-6" value="I/O" style="rounded=1;whiteSpace=wrap;html=1;fontSize=12;glass=0;strokeWidth=1;shadow=0;" vertex="1" parent="WIyWlLk6GJQsqaUBKTNV-1">
          <mxGeometry x="180" y="510" width="70" height="40" as="geometry" />
        </mxCell>
        <mxCell id="m2YHZ7NnHzL9NQa0xSZE-7" value="&lt;span style=&quot;font-size: 18px&quot;&gt;host&amp;nbsp;HW&lt;/span&gt;" style="rounded=1;whiteSpace=wrap;html=1;fillColor=none;strokeColor=none;" vertex="1" parent="WIyWlLk6GJQsqaUBKTNV-1">
          <mxGeometry x="180" y="460" width="100" height="30" as="geometry" />
        </mxCell>
        <mxCell id="m2YHZ7NnHzL9NQa0xSZE-8" value="Memory" style="rounded=1;whiteSpace=wrap;html=1;fontSize=12;glass=0;strokeWidth=1;shadow=0;" vertex="1" parent="WIyWlLk6GJQsqaUBKTNV-1">
          <mxGeometry x="280" y="510" width="70" height="40" as="geometry" />
        </mxCell>
        <mxCell id="m2YHZ7NnHzL9NQa0xSZE-9" value="CPUs" style="rounded=1;whiteSpace=wrap;html=1;fontSize=12;glass=0;strokeWidth=1;shadow=0;" vertex="1" parent="WIyWlLk6GJQsqaUBKTNV-1">
          <mxGeometry x="378.5" y="510" width="70" height="40" as="geometry" />
        </mxCell>
        <mxCell id="m2YHZ7NnHzL9NQa0xSZE-10" value="domain 0&lt;br&gt;（control）" style="rounded=1;whiteSpace=wrap;html=1;fontSize=12;glass=0;strokeWidth=1;shadow=0;" vertex="1" parent="WIyWlLk6GJQsqaUBKTNV-1">
          <mxGeometry x="170" y="170" width="85" height="60" as="geometry" />
        </mxCell>
        <mxCell id="m2YHZ7NnHzL9NQa0xSZE-18" value="" style="group" vertex="1" connectable="0" parent="WIyWlLk6GJQsqaUBKTNV-1">
          <mxGeometry x="440" y="150" width="85" height="100" as="geometry" />
        </mxCell>
        <mxCell id="m2YHZ7NnHzL9NQa0xSZE-12" value="" style="rounded=1;whiteSpace=wrap;html=1;fontSize=12;glass=0;strokeWidth=1;shadow=0;" vertex="1" parent="m2YHZ7NnHzL9NQa0xSZE-18">
          <mxGeometry width="85" height="60" as="geometry" />
        </mxCell>
        <mxCell id="m2YHZ7NnHzL9NQa0xSZE-13" value="VM0" style="text;html=1;strokeColor=none;fillColor=none;align=center;verticalAlign=middle;whiteSpace=wrap;rounded=0;" vertex="1" parent="m2YHZ7NnHzL9NQa0xSZE-18">
          <mxGeometry width="40" height="20" as="geometry" />
        </mxCell>
        <mxCell id="m2YHZ7NnHzL9NQa0xSZE-19" value="" style="group" vertex="1" connectable="0" parent="m2YHZ7NnHzL9NQa0xSZE-18">
          <mxGeometry x="-26" y="20" width="85" height="80" as="geometry" />
        </mxCell>
        <mxCell id="m2YHZ7NnHzL9NQa0xSZE-20" value="" style="rounded=1;whiteSpace=wrap;html=1;fontSize=12;glass=0;strokeWidth=1;shadow=0;" vertex="1" parent="m2YHZ7NnHzL9NQa0xSZE-19">
          <mxGeometry width="85" height="60" as="geometry" />
        </mxCell>
        <mxCell id="m2YHZ7NnHzL9NQa0xSZE-21" value="VM1" style="text;html=1;strokeColor=none;fillColor=none;align=center;verticalAlign=middle;whiteSpace=wrap;rounded=0;" vertex="1" parent="m2YHZ7NnHzL9NQa0xSZE-19">
          <mxGeometry width="40" height="20" as="geometry" />
        </mxCell>
        <mxCell id="m2YHZ7NnHzL9NQa0xSZE-22" value="&lt;br&gt;Guest&amp;nbsp;OS&lt;br&gt;apps" style="rounded=1;whiteSpace=wrap;html=1;fontSize=12;glass=0;strokeWidth=1;shadow=0;" vertex="1" parent="m2YHZ7NnHzL9NQa0xSZE-19">
          <mxGeometry x="-34" y="20" width="85" height="60" as="geometry" />
        </mxCell>
        <mxCell id="m2YHZ7NnHzL9NQa0xSZE-23" value="VM2" style="text;html=1;strokeColor=none;fillColor=none;align=center;verticalAlign=middle;whiteSpace=wrap;rounded=0;" vertex="1" parent="m2YHZ7NnHzL9NQa0xSZE-19">
          <mxGeometry x="-34" y="20" width="40" height="20" as="geometry" />
        </mxCell>
      </root>
    </mxGraphModel>
  </diagram>
</mxfile>
